<?xml version="1.0" encoding="utf-8"?>
<!-- Generator: Adobe Illustrator 18.0.0, SVG Export Plug-In . SVG Version: 6.00 Build 0)  -->
<!DOCTYPE svg PUBLIC "-//W3C//DTD SVG 1.1//EN" "http://www.w3.org/Graphics/SVG/1.1/DTD/svg11.dtd">
<svg version="1.1" id="Layer_1" xmlns="http://www.w3.org/2000/svg" xmlns:xlink="http://www.w3.org/1999/xlink" x="0px" y="0px"
	 viewBox="0 0 400 400" enable-background="new 0 0 400 400" xml:space="preserve">
<rect fill="none" width="399.6" height="400"/>
<g>
	<path fill="#FD3259" d="M342.9,337.6H272c-3.8,0-6.9-3.1-6.9-6.9V65.8c0-3.8,3.1-6.9,6.9-6.9h70.9c3.8,0,6.9,3.1,6.9,6.9v264.8
		C349.8,334.5,346.7,337.6,342.9,337.6z"/>
	<path fill="#015EBE" d="M317.2,325.8h-23.7c-2.2,0-4-1.8-4-4V79c0-2.2,1.8-4,4-4h23.7c2.2,0,4,1.8,4,4v242.8
		C321.2,324,319.4,325.8,317.2,325.8z"/>
	<path fill="#F2F2F2" d="M326.1,198.3c0,112.9-55.7,138.5-124.4,138.8c-63.4,0.3-112.2-65.3-112.2-142S148,64.3,201.7,59.5
		C270.1,53.3,326.1,101.6,326.1,198.3z"/>
	<path fill="#01B4DF" d="M170,64C164.4,59,48,96.1,58,213s131.2,124.6,131.2,124.6s-79-16.7-93.1-130.8S198.6,64,198.6,64H170z"/>
	<g>
		<path fill="#015EBE" d="M124.3,199.9c0-3.1,0.1-6.2,0.4-9.3c0.2-2.7-1.8-5.1-4.6-5.3c-2.7-0.2-5.2,1.8-5.4,4.5
			c-0.3,3.3-0.4,6.7-0.4,10.1v0.1c0,2.7,2.2,4.9,5,4.9C122.1,204.9,124.3,202.7,124.3,199.9z"/>
		<path fill="#015EBE" d="M177.6,292.7c-2.8-1.4-5.5-2.9-8.1-4.6c-2.3-1.5-5.4-0.8-6.9,1.4c-1.5,2.3-0.9,5.3,1.4,6.8
			c2.9,1.9,6,3.6,9,5.2c0.7,0.4,1.5,0.5,2.3,0.5c1.8,0,3.6-1,4.5-2.7C181,296.9,180.1,293.9,177.6,292.7z"/>
		<path fill="#015EBE" d="M182.5,94.3c-3.2,1.2-6.5,2.6-9.6,4.2c-2.5,1.2-3.4,4.2-2.2,6.6c0.9,1.7,2.6,2.7,4.5,2.7
			c0.8,0,1.5-0.2,2.3-0.5c2.8-1.4,5.7-2.7,8.5-3.7c2.6-1,3.9-3.8,2.9-6.4C187.9,94.6,185.1,93.3,182.5,94.3z"/>
		<path fill="#015EBE" d="M147.7,116.7c-2.4,2.4-4.8,5-6.9,7.6c-1.8,2.1-1.4,5.2,0.7,6.9c0.9,0.8,2.1,1.1,3.2,1.1
			c1.4,0,2.9-0.6,3.9-1.8c2-2.4,4.1-4.7,6.3-6.9c1.9-1.9,1.9-5.1,0-7C152.8,114.8,149.7,114.8,147.7,116.7z"/>
		<path fill="#015EBE" d="M131.2,147.9c-2.5-1.1-5.5,0-6.6,2.5c-1.4,3.1-2.6,6.3-3.7,9.5c-0.9,2.6,0.5,5.4,3.1,6.3
			c0.5,0.2,1.1,0.3,1.6,0.3c2.1,0,4-1.3,4.7-3.4c1-3,2.2-5.9,3.4-8.7C134.9,151.9,133.8,149,131.2,147.9z"/>
		<path fill="#015EBE" d="M127.8,227.9c-0.7-2.6-3.4-4.3-6.1-3.6c-2.7,0.7-4.3,3.3-3.6,6c0.8,3.3,1.8,6.6,2.9,9.8
			c0.7,2.1,2.7,3.3,4.7,3.3c0.5,0,1.1-0.1,1.6-0.3c2.6-0.9,4-3.7,3.1-6.3C129.4,234,128.5,230.9,127.8,227.9z"/>
		<path fill="#015EBE" d="M143,262c-1.6-2.3-4.7-2.9-6.9-1.3c-2.3,1.5-2.9,4.6-1.3,6.9c2,2.9,4,5.6,6.2,8.2c1,1.2,2.4,1.8,3.9,1.8
			c1.1,0,2.2-0.4,3.2-1.1c2.1-1.7,2.4-4.8,0.7-7C146.7,267.1,144.8,264.6,143,262z"/>
		<path fill="#015EBE" d="M213.5,301.3c-3.1,0-6.2-0.2-9.3-0.5c-2.8-0.3-5.2,1.6-5.6,4.3s1.6,5.2,4.4,5.5c3.4,0.4,7,0.6,10.5,0.6
			h0.4c2.8,0,4.8-2.2,4.8-4.9C218.7,303.5,216.3,301.3,213.5,301.3z"/>
		<path fill="#015EBE" d="M283.9,137.7c1,1.4,2.5,2.2,4.1,2.2c1,0,1.9-0.3,2.8-0.8c2.3-1.5,2.9-4.6,1.3-6.9c-1.9-2.8-4-5.6-6.2-8.2
			c-1.8-2.1-4.9-2.4-7-0.7c-2.1,1.7-2.4,4.8-0.7,7C280.2,132.6,282.1,135.2,283.9,137.7z"/>
		<path fill="#015EBE" d="M243,305.8c0.6,0,1.2-0.1,1.8-0.3c3.2-1.2,6.5-2.6,9.6-4.2c2.5-1.2,3.4-4.2,2.2-6.6
			c-1.3-2.4-4.3-3.4-6.7-2.1c-2.8,1.4-5.6,2.7-8.5,3.7c-2.6,1-3.9,3.8-2.9,6.4C239.1,304.6,241,305.8,243,305.8z"/>
		<path fill="#015EBE" d="M249.2,107.1c2.8,1.4,5.5,2.9,8.1,4.6c0.8,0.5,1.8,0.8,2.7,0.8c1.6,0,3.2-0.8,4.2-2.2
			c1.5-2.3,0.9-5.3-1.5-6.8c-2.9-1.9-6-3.6-9.1-5.2c-2.5-1.2-5.5-0.3-6.7,2.2C245.8,102.9,246.8,105.9,249.2,107.1z"/>
		<path fill="#015EBE" d="M213.3,93.7v-4.9c-2.8,0-4.9,2.2-4.9,4.9c0,2.7,2.3,4.9,5.1,4.9c3,0,6.1,0.2,9.1,0.5c0.2,0,0.4,0,0.6,0
			c2.5,0,4.7-1.9,5-4.4c0.3-2.7-1.6-5.2-4.4-5.5c-3.4-0.4-6.9-0.5-10.4-0.6L213.3,93.7z"/>
		<path fill="#015EBE" d="M275.9,284.5c1.3,0,2.6-0.5,3.6-1.5c2.4-2.4,4.7-5,6.9-7.6c1.7-2.1,1.4-5.2-0.7-6.9
			c-2.1-1.7-5.3-1.4-7,0.7c-2,2.4-4.1,4.7-6.3,6.9c-1.9,1.9-1.9,5.1,0,7C273.3,284,274.6,284.5,275.9,284.5z"/>
		<path fill="#015EBE" d="M302.7,199.9c0,3.1-0.1,6.1-0.4,9.1c-0.2,2.7,1.8,5.1,4.6,5.3c0.1,0,0.3,0,0.4,0c2.6,0,4.8-2,5-4.6
			c0.3-3.2,0.4-6.5,0.4-9.8v-0.3c0-2.7-2.2-4.8-5-4.8S302.7,197.2,302.7,199.9z"/>
		<path fill="#015EBE" d="M299.2,171.8c0.6,2.2,2.6,3.7,4.8,3.7c0.4,0,0.8,0,1.2-0.1c2.7-0.7,4.3-3.3,3.6-6
			c-0.8-3.3-1.8-6.6-2.9-9.8c-0.9-2.6-3.7-4-6.4-3.1c-2.6,0.9-4,3.7-3.1,6.3C297.5,165.7,298.4,168.7,299.2,171.8z"/>
		<path fill="#015EBE" d="M295.9,251.8c0.6,0.3,1.3,0.4,2,0.4c1.9,0,3.8-1.1,4.6-3c1.4-3.1,2.6-6.3,3.7-9.5c0.9-2.6-0.5-5.4-3.1-6.3
			c-2.6-0.9-5.5,0.5-6.3,3.1c-1,3-2.2,5.9-3.4,8.7C292.2,247.8,293.3,250.7,295.9,251.8z"/>
		<path fill="#37444F" stroke="#37444F" stroke-width="0.4783" stroke-miterlimit="10" d="M327.7,51.8h-43.4
			c-10.5,0-19.9,5.7-24.7,14.7c-14.5-6.3-30-9.7-46.1-9.7c-5.1,0-10.1,0.4-15.1,1c-5.2-0.7-10.1-1-14.9-1
			c-24.4,0-47.2,7.8-66.7,21.2c0,0,0,0,0,0C107,84.8,98,93,90.2,102.5c-0.2,0.2-0.4,0.5-0.6,0.7c-7.4,9.1-13.8,19.2-19,30.2
			c-0.1,0.2-0.3,0.5-0.3,0.8c-3.6,7.7-6.5,15.8-8.8,24.2c-0.2,0.5-0.3,1-0.4,1.5c-3.3,12.7-5.1,26.1-5.1,40
			c0,21.7,4.4,42.3,12.1,60.8c0.1,0.2,0.1,0.4,0.2,0.6c4.6,10.9,10.5,21.1,17.3,30.3c0.2,0.3,0.3,0.5,0.6,0.7
			c6.9,9.2,14.9,17.4,23.7,24.4c0.3,0.3,0.6,0.5,0.9,0.7c20.6,16.1,45.7,25.6,72.7,25.6c4.9,0,9.8-0.4,14.9-1c4.9,0.7,10,1,15.1,1
			c16,0,31.6-3.4,46.1-9.7c4.9,8.9,14.2,14.7,24.7,14.7h43.4c15.6,0,28.3-12.5,28.3-27.9V79.8C356,64.4,343.3,51.8,327.7,51.8z
			 M267.2,81.5c1.1,0.6,2.2,1.3,3.2,2c1.6,1,3.2,2.1,4.8,3.2c0.9,0.6,1.7,1.2,2.5,1.8c2.1,1.6,4.1,3.2,6.1,4.9
			c0.3,0.3,0.6,0.5,0.9,0.8c1.5,1.3,2.9,2.7,4.3,4c1.8,1.7,3.6,3.5,5.3,5.4c1,1,1.9,2.1,2.8,3.1c1.6,1.8,3,3.6,4.5,5.5
			c0.9,1.2,1.8,2.3,2.7,3.5c0,0,0,0,0.1,0.1c1.6,2.2,3,4.4,4.5,6.7c0.3,0.5,0.7,1,1,1.6c0.3,0.6,0.7,1.1,1.1,1.7c1.8,3,3.4,6,5,9.2
			V265c-1.5,3.1-3.2,6.2-5,9.2c-0.3,0.6-0.7,1.1-1.1,1.7c-0.3,0.5-0.7,1-1,1.6c-1.4,2.3-2.9,4.5-4.5,6.7c0,0,0,0-0.1,0.1
			c-0.9,1.2-1.8,2.3-2.7,3.5c-1.5,1.9-2.9,3.7-4.5,5.5c-0.9,1.1-1.9,2.1-2.8,3.1c-1.7,1.8-3.5,3.6-5.3,5.4c-1.4,1.4-2.8,2.8-4.3,4
			c-0.3,0.3-0.6,0.5-0.9,0.8c-2,1.7-4,3.3-6.1,4.9c-0.8,0.6-1.7,1.2-2.5,1.8c-1.6,1.1-3.2,2.2-4.8,3.2c-1.1,0.7-2.1,1.3-3.2,2
			c-1.5,0.9-3.1,1.7-4.6,2.5c-15.2,7.9-31.9,12.3-49.1,12.3c-4,0-7.9-0.2-11.8-0.7l-2-0.3c-0.2,0-0.5-0.1-0.7-0.1
			c-1.7-0.2-3.5-0.5-5.2-0.9c-0.1,0-0.2,0-0.4-0.1c-1.7-0.3-3.3-0.7-5-1.1c-0.2-0.1-0.4-0.1-0.7-0.2c-1.5-0.4-3.1-0.8-4.6-1.3
			c-0.4-0.1-0.8-0.3-1.2-0.4c-1.3-0.4-2.6-0.8-3.9-1.3c-0.9-0.3-1.8-0.7-2.7-1.1c-0.8-0.3-1.6-0.6-2.3-0.9
			c-26.9-11.2-49.2-33.3-62.7-61.5c-0.1-0.3-0.2-0.5-0.4-0.8c-0.7-1.5-1.4-3.1-2.1-4.7c-0.3-0.6-0.5-1.2-0.8-1.9
			c-0.5-1.2-1-2.5-1.5-3.7c-0.3-0.8-0.6-1.6-0.9-2.4c-0.4-1.1-0.8-2.2-1.2-3.3c-0.3-0.9-0.6-1.8-0.9-2.7c-0.3-1-0.6-2.1-0.9-3.2
			c-0.3-1-0.5-1.9-0.8-2.9c-0.3-1-0.5-2.1-0.8-3.1c-0.2-1-0.5-2-0.7-3c-0.2-1.1-0.4-2.1-0.6-3.2c-0.2-1-0.4-2-0.6-3
			c-0.2-1.1-0.4-2.2-0.5-3.3c-0.2-1-0.3-2-0.4-3c-0.2-1.2-0.3-2.4-0.4-3.6c-0.1-0.9-0.2-1.9-0.3-2.8c-0.1-1.4-0.2-2.8-0.3-4.1
			c0-0.8-0.1-1.6-0.1-2.3c-0.1-2.2-0.2-4.3-0.2-6.6s0.1-4.4,0.1-6.6c0-0.8,0.1-1.6,0.1-2.3c0.1-1.4,0.2-2.8,0.3-4.1
			c0.1-0.9,0.2-1.9,0.3-2.8c0.1-1.2,0.2-2.4,0.4-3.6c0.1-1,0.3-2,0.4-3c0.2-1.1,0.3-2.2,0.5-3.3c0.2-1,0.4-2,0.6-3
			c0.2-1.1,0.4-2.1,0.6-3.2c0.2-1,0.4-2,0.7-3c0.2-1.1,0.5-2.1,0.8-3.1c0.3-1,0.5-1.9,0.8-2.9c0.3-1.1,0.6-2.1,0.9-3.2
			c0.3-0.9,0.6-1.8,0.9-2.7c0.4-1.1,0.8-2.2,1.2-3.3c0.3-0.8,0.6-1.6,0.9-2.4c0.5-1.3,1-2.5,1.5-3.7c0.3-0.6,0.5-1.2,0.8-1.9
			c0.7-1.6,1.4-3.1,2.1-4.7c0.1-0.3,0.2-0.5,0.4-0.8c13.6-28.2,35.9-50.3,62.7-61.5c0.8-0.3,1.6-0.6,2.3-0.9
			c0.9-0.4,1.8-0.7,2.7-1.1c1.3-0.5,2.6-0.9,3.9-1.3c0.4-0.1,0.8-0.3,1.2-0.4c1.5-0.5,3.1-0.9,4.6-1.3c0.2-0.1,0.4-0.1,0.6-0.2
			c1.6-0.4,3.3-0.8,5-1.1c0.1,0,0.2,0,0.4-0.1c1.7-0.3,3.4-0.6,5.2-0.9c0.2,0,0.5-0.1,0.7-0.1l2-0.3c3.9-0.4,7.8-0.7,11.8-0.7
			c17.3,0,34,4.4,49.1,12.3C264.2,79.8,265.7,80.6,267.2,81.5z M296,90.8v-7.4c0-1.1,0.9-2,2-2h16c1.1,0,2,0.9,2,2v31.4
			c-0.3-0.5-0.7-1-1-1.5c-0.4-0.5-0.8-1.1-1.1-1.6c-0.8-1.2-1.7-2.4-2.5-3.6c-0.8-1.1-1.6-2.1-2.4-3.1c-0.4-0.5-0.8-1-1.2-1.5
			c-0.5-0.6-1-1.2-1.5-1.8c-1.2-1.4-2.4-2.7-3.6-4c-0.4-0.5-0.8-1-1.3-1.4c-0.2-0.2-0.4-0.4-0.6-0.6c-1.3-1.4-2.6-2.7-4-4
			C296.5,91.4,296.3,91.1,296,90.8z M296,309.1c0.3-0.3,0.5-0.5,0.8-0.8c1.4-1.3,2.7-2.6,4-4c0.2-0.2,0.4-0.4,0.6-0.6
			c0.4-0.5,0.9-1,1.3-1.4c1.2-1.3,2.4-2.6,3.6-4c0.5-0.6,1-1.2,1.5-1.8c0.4-0.5,0.8-1,1.2-1.5c0.8-1,1.7-2,2.4-3.1
			c0.9-1.2,1.7-2.4,2.5-3.6c0.4-0.5,0.8-1.1,1.1-1.6c0.3-0.5,0.7-1,1-1.5v31.4c0,1.1-0.9,2-2,2h-16c-1.1,0-2-0.9-2-2V309.1z
			 M80.6,264.1h18.9c0.8,1.8,1.6,3.5,2.4,5.2c0.4,0.7,0.7,1.4,1.1,2.2c1,2,2.1,4,3.2,5.9c0.4,0.7,0.8,1.4,1.2,2.1
			c0.9,1.5,1.8,2.9,2.7,4.4H92.4C88,277.7,84,271.1,80.6,264.1z M78.3,140.7h19.1c-0.9,2.2-1.7,4.3-2.5,6.6
			c-0.2,0.6-0.4,1.2-0.6,1.8c-0.7,2.1-1.4,4.3-2,6.4H72.8C74.4,150.4,76.2,145.5,78.3,140.7z M96.1,111.1h17.5
			c-0.6,0.9-1.2,1.7-1.8,2.6c-1.5,2.2-2.9,4.4-4.3,6.7c-0.4,0.7-0.8,1.4-1.2,2.1c-1.1,1.9-2.2,3.9-3.2,5.9c-0.4,0.7-0.8,1.4-1.1,2.2
			c0,0.1-0.1,0.2-0.1,0.3H83.1C86.9,123.8,91.3,117.2,96.1,111.1z M66,199.9c0-3.3,0.2-6.6,0.4-9.9h19.9c0,0.1,0,0.2,0,0.2
			c-0.2,3.2-0.3,6.4-0.3,9.6c0,1.7,0.1,3.3,0.1,4.9H66.2C66.1,203.2,66,201.6,66,199.9z M86.7,214.8c0.2,2.1,0.4,4.1,0.7,6.2
			c0,0.1,0,0.3,0,0.5c0.4,2.7,0.8,5.5,1.3,8.2H69c-1-4.8-1.7-9.8-2.2-14.8H86.7z M89.8,165.4c-0.1,0.6-0.2,1.2-0.4,1.8
			c-0.1,0.6-0.3,1.3-0.4,1.9c-0.6,3.1-1.2,6.2-1.6,9.4c0,0.1,0,0.3,0,0.5c-0.1,0.4-0.1,0.8-0.1,1.3H67.4c0.7-5,1.5-10,2.6-14.8H89.8
			z M91,239.4c0.2,0.6,0.3,1.2,0.5,1.8c0.1,0.2,0.1,0.4,0.2,0.6c0.8,3,1.8,6,2.7,8.9c0.2,0.6,0.4,1.2,0.6,1.8
			c0.2,0.5,0.4,1.1,0.6,1.6H76.3c-1.9-4.8-3.5-9.7-4.9-14.8L91,239.4L91,239.4z M160.6,69.7c-1.6,0.8-3.2,1.7-4.7,2.6
			c-0.9,0.5-1.9,1.1-2.8,1.6c-1.4,0.8-2.7,1.7-4.1,2.6h-9.6c7.3-3.4,14.9-6,22.9-7.7C161.7,69.1,161.2,69.4,160.6,69.7z M122.2,86.4
			H136c-1.2,1.1-2.5,2.1-3.7,3.3c-1,0.9-2,1.9-3,2.9c-1,1-2,2-2.9,3c-0.9,1-1.9,2-2.8,3c-0.8,0.9-1.6,1.8-2.3,2.7h-16.5
			C110.2,95.7,116,90.7,122.2,86.4z M100.1,293.7h17.2c0.6,0.7,1.1,1.5,1.7,2.2c1.5,1.9,3.1,3.7,4.7,5.5c0.9,1,1.8,2,2.8,3
			c1,1,1.9,2,2.9,3c0.4,0.4,0.8,0.8,1.2,1.2h-15C110,304.1,104.9,299.2,100.1,293.7z M162.3,331.1c-11.5-2.4-22.3-6.8-32.3-12.6H142
			c0.6,0.5,1.3,0.9,1.9,1.4c1.1,0.8,2.1,1.6,3.2,2.3c1.9,1.3,3.9,2.6,5.9,3.8c0.9,0.6,1.9,1.1,2.8,1.6c1.6,0.9,3.1,1.7,4.7,2.6
			C161.2,330.4,161.7,330.8,162.3,331.1z M346,320.1c0,10-8.2,18.1-18.3,18.1h-43.4c-6.6,0-12.5-3.5-15.7-9.1
			c0.5-0.2,0.9-0.5,1.3-0.8c1.8-1,3.6-2.1,5.4-3.2c0.9-0.5,1.8-1.1,2.6-1.6c2.8-1.8,5.6-3.8,8.2-5.9c0.6,6,5.7,10.7,11.9,10.7h16
			c6.6,0,12-5.3,12-11.8v-49.1v-22.8v-89.2v-22.8V83.4c0-6.5-5.4-11.8-12-11.8h-16c-6.2,0-11.3,4.7-11.9,10.7
			c-2.7-2.1-5.4-4-8.2-5.9c-0.9-0.6-1.8-1.1-2.6-1.6c-1.8-1.1-3.6-2.2-5.4-3.2c-0.5-0.3-0.9-0.6-1.3-0.8c3.2-5.5,9.1-9.1,15.7-9.1
			h43.4c10.1,0,18.3,8.1,18.3,18.1V320.1z"/>
	</g>
	<g>
		<path fill="#37444F" d="M203.3,205.7c1.4,3,2.2,6.1,2.3,9.4c0,3.4-0.7,6.6-2.1,9.6c-1.4,3-3.3,5.6-5.8,7.7c-1.2,1-2.5,1.9-3.8,2.6
			c-1.3,0.7-2.7,1.3-4.1,1.8v5.4c0,1.8-0.6,3.4-1.9,4.7c-1.3,1.3-2.9,1.9-4.7,1.9c-1.8,0-3.4-0.6-4.7-1.9c-1.3-1.3-1.9-2.9-1.9-4.7
			v-5.4c-5.6-1.8-9.9-5.2-12.9-10.2c-0.9-1.6-1.1-3.2-0.6-5c0.5-1.8,1.5-3.1,3.1-4.1c1.6-0.9,3.2-1.1,5-0.6c1.8,0.5,3.1,1.5,4,3.1
			c1.5,2.5,3.6,4,6.4,4.4c2.9,0.5,5.3-0.2,7.5-2.1c2.2-1.8,3.3-4.1,3.3-7.1c-0.1-1.3-0.4-2.6-1-3.8c-0.6-1.2-1.4-2.3-2.5-3.1
			l-17.3-14.2c-2.6-2-4.6-4.5-5.9-7.4c-1.4-2.9-2.1-6-2.1-9.2c-0.1-3.2,0.5-6.3,1.9-9.3c1.3-3,3.3-5.5,5.7-7.6
			c1.1-1,2.3-1.9,3.6-2.6c1.3-0.7,2.6-1.3,4-1.7V151c0-1.8,0.6-3.4,1.9-4.7c1.3-1.3,2.9-1.9,4.7-1.9c1.8,0,3.4,0.6,4.7,1.9
			c1.3,1.3,1.9,2.9,1.9,4.7v5.5c2.6,0.7,4.9,2,7.1,3.7c2.1,1.7,3.8,3.8,5.1,6.2c1,1.6,1.3,3.2,0.8,5c-0.5,1.8-1.5,3.1-3.1,4.1
			c-1.6,0.9-3.2,1.1-5,0.6c-1.8-0.5-3.1-1.5-4.1-3.1c-1.3-2.3-3.3-3.7-5.9-4.1c-2.7-0.5-5,0.2-7.1,1.9c-2.1,1.8-3.1,4-2.9,6.6
			c0,2.6,1,4.8,3,6.5l17.4,14.2C199.9,200.3,201.9,202.8,203.3,205.7z"/>
		<path fill="#37444F" d="M241.7,243.4c-3.2,0-6.2-0.6-9.1-1.8c-2.8-1.2-5.3-2.9-7.4-5c-2.1-2.1-3.8-4.6-5-7.4
			c-1.2-2.8-1.8-5.8-1.8-9.1v-47c0-3.2,0.6-6.2,1.8-9.1c1.2-2.8,2.9-5.3,5-7.4c2.1-2.1,4.6-3.8,7.4-5c2.8-1.2,5.8-1.8,9.1-1.8
			c3.1,0,6.1,0.6,9,1.8c2.9,1.2,5.3,2.9,7.4,5c2.1,2.1,3.7,4.6,5,7.4c1.2,2.8,1.9,5.8,1.9,9.1v47c0,3.2-0.6,6.2-1.9,9.1
			c-1.2,2.8-2.9,5.3-5,7.4c-2.1,2.1-4.5,3.8-7.4,5C247.9,242.8,244.9,243.4,241.7,243.4z M241.7,163.1c-2.8,0-5.1,1-7.1,2.9
			c-1.9,1.9-2.9,4.3-2.9,7.1v47c0,2.8,1,5.1,2.9,7.1c1.9,1.9,4.3,2.9,7.1,2.9c2.7,0,5-1,7-2.9c2-1.9,3-4.3,3-7.1v-47
			c0-2.8-1-5.1-3-7.1C246.7,164.1,244.4,163.1,241.7,163.1z"/>
	</g>
</g>
<g display="none">
	<rect x="54.1" y="299.2" display="inline" fill="#015EBE" width="292.4" height="47.2"/>
	<rect x="61.1" y="136.7" display="inline" fill="#01B4DF" width="79.2" height="162.5"/>
	<rect x="146.5" y="136.7" display="inline" fill="#FFFFFF" width="108.3" height="208.8"/>
	<rect x="259" y="136.7" display="inline" fill="#01B4DF" width="79.2" height="162.5"/>
	<rect x="161.8" y="136.7" display="inline" fill="#C2C1C9" width="73.5" height="83.1"/>
	<rect x="161.8" y="243.4" display="inline" fill="#C2C1C9" width="73.5" height="83.1"/>
	<rect x="61.1" y="90.2" display="inline" fill="#FD3259" width="280.6" height="46.5"/>
	<g display="inline">
		<path fill="#37444F" stroke="#37444F" stroke-width="0.4828" stroke-miterlimit="10" d="M344.9,115V95h5V65h-15V50h-270v15h-15v30
			h5v20v7.5v172.5h-5v55h90h10h100h10h90v-55h-5V122.5V115z M334.9,115v7.5c0,6.9-5.6,12.5-12.5,12.5s-12.5-5.6-12.5-12.5V95h25V115
			z M299.9,122.5c0,6.9-5.6,12.5-12.5,12.5s-12.5-5.6-12.5-12.5V95h25V122.5z M264.9,122.5c0,5.9-4.1,10.8-9.6,12.1l-1.3,0.2
			c-0.5,0.1-1,0.2-1.6,0.2c-6.9,0-12.5-5.6-12.5-12.5V95h25V122.5z M145.6,134.8l-1.1-0.2c-5.5-1.3-9.6-6.2-9.6-12.1V95h25v27.5
			c0,6.9-5.6,12.5-12.5,12.5C146.8,135,146.3,134.9,145.6,134.8z M124.9,122.5c0,6.9-5.6,12.5-12.5,12.5s-12.5-5.6-12.5-12.5V95h25
			V122.5z M229.9,122.5c0,6.9-5.6,12.5-12.5,12.5s-12.5-5.6-12.5-12.5V95h25V122.5z M194.9,122.5c0,6.9-5.6,12.5-12.5,12.5
			s-12.5-5.6-12.5-12.5V95h25V122.5z M169.9,141.1c0,0,0.1,0,0.1,0.1c1,0.7,2.2,1.3,3.3,1.8c0.2,0.1,0.4,0.2,0.6,0.3
			c1.2,0.5,2.4,0.9,3.7,1.1c0.2,0,0.4,0.1,0.6,0.1c1.3,0.3,2.7,0.4,4.2,0.4s2.8-0.2,4.2-0.4c0.2,0,0.4-0.1,0.6-0.1
			c1.3-0.3,2.5-0.7,3.7-1.1c0.2-0.1,0.4-0.2,0.6-0.3c1.2-0.5,2.3-1.1,3.3-1.8c0.2-0.1,0.3-0.2,0.5-0.3c1.1-0.8,2.1-1.6,3-2.5
			c0,0,0.1-0.1,0.1-0.1c0.5-0.5,1.1-1.1,1.5-1.7c0.5,0.6,1,1.2,1.5,1.7c0,0,0.1,0.1,0.1,0.1c0.9,0.9,2,1.7,3,2.5
			c0.2,0.1,0.3,0.2,0.5,0.3c1,0.7,2.2,1.3,3.3,1.8c0.2,0.1,0.4,0.2,0.6,0.3c1.2,0.5,2.4,0.9,3.7,1.1c0.2,0,0.4,0.1,0.6,0.1
			c1.3,0.3,2.7,0.4,4.1,0.4s2.8-0.2,4.2-0.4c0.2,0,0.4-0.1,0.6-0.1c1.3-0.3,2.5-0.7,3.7-1.1c0.2-0.1,0.4-0.2,0.6-0.3
			c1.2-0.5,2.3-1.1,3.3-1.8c0,0,0.1,0,0.1-0.1v73.8h-60V141.1z M74.9,60h250v5h-250V60z M59.9,75h5h270h5v10h-30h-10h-25h-10h-25
			h-10h-25h-10h-25h-10h-25h-10h-25h-10h-30V75z M89.9,95v27.5c0,6.9-5.6,12.5-12.5,12.5c-6.9,0-12.5-5.6-12.5-12.5V115V95H89.9z
			 M64.9,141.1c3.6,2.4,7.9,3.8,12.5,3.8c7.1,0,13.4-3.4,17.5-8.5c4.1,5.2,10.4,8.5,17.5,8.5s13.4-3.4,17.5-8.5
			c2.6,3.2,6,5.7,10,7.1v151.4h-75V141.1z M119.9,339.9c2.8,0,5-2.2,5-5c0-2.8-2.2-5-5-5h-5c-2.8,0-5,2.2-5,5c0,2.8,2.2,5,5,5h-15
			c2.8,0,5-2.2,5-5c0-2.8-2.2-5-5-5h-5c-2.8,0-5,2.2-5,5c0,2.8,2.2,5,5,5h-15c2.8,0,5-2.2,5-5c0-2.8-2.2-5-5-5h-5c-2.8,0-5,2.2-5,5
			c0,2.8,2.2,5,5,5h-15c2.8,0,5-2.2,5-5c0-2.8-2.2-5-5-5v-5h5c2.8,0,5-2.2,5-5c0-2.8-2.2-5-5-5h-5v-10h5c0,2.8,2.2,5,5,5h5
			c2.8,0,5-2.2,5-5h5c0,2.8,2.2,5,5,5h5c2.8,0,5-2.2,5-5h5c0,2.8,2.2,5,5,5h5c2.8,0,5-2.2,5-5h5c0,2.8,2.2,5,5,5h5c2.8,0,5-2.2,5-5
			v10c-2.8,0-5,2.2-5,5c0,2.8,2.2,5,5,5v5h-5c-2.8,0-5,2.2-5,5c0,2.8,2.2,5,5,5H119.9z M249.9,339.9h-100v-45V144.8
			c0.4,0,0.7-0.2,1-0.2c0.7-0.1,1.5-0.3,2.2-0.5c0.7-0.2,1.4-0.4,2.1-0.6c0.7-0.3,1.4-0.6,2-0.9c0.6-0.3,1.3-0.6,1.9-1
			c0.3-0.2,0.5-0.3,0.8-0.4v83.8h80v-83.8c0.2,0.2,0.5,0.3,0.8,0.4c0.6,0.4,1.2,0.7,1.9,1c0.7,0.3,1.3,0.6,2,0.9
			c0.7,0.3,1.4,0.5,2.1,0.6c0.7,0.2,1.4,0.3,2.2,0.5c0.4,0.1,0.7,0.2,1,0.2v150.1L249.9,339.9L249.9,339.9z M319.9,339.9
			c2.8,0,5-2.2,5-5c0-2.8-2.2-5-5-5h-5c-2.8,0-5,2.2-5,5c0,2.8,2.2,5,5,5h-15c2.8,0,5-2.2,5-5c0-2.8-2.2-5-5-5h-5c-2.8,0-5,2.2-5,5
			c0,2.8,2.2,5,5,5h-15c2.8,0,5-2.2,5-5c0-2.8-2.2-5-5-5h-5c-2.8,0-5,2.2-5,5c0,2.8,2.2,5,5,5h-15c2.8,0,5-2.2,5-5c0-2.8-2.2-5-5-5
			v-5h5c2.8,0,5-2.2,5-5c0-2.8-2.2-5-5-5h-5v-10h5c0,2.8,2.2,5,5,5h5c2.8,0,5-2.2,5-5h5c0,2.8,2.2,5,5,5h5c2.8,0,5-2.2,5-5h5
			c0,2.8,2.2,5,5,5h5c2.8,0,5-2.2,5-5h5c0,2.8,2.2,5,5,5h5c2.8,0,5-2.2,5-5v10c-2.8,0-5,2.2-5,5c0,2.8,2.2,5,5,5v5h-5
			c-2.8,0-5,2.2-5,5c0,2.8,2.2,5,5,5H319.9z M259.9,294.9V143.6c4-1.4,7.4-3.9,10-7.1c4.1,5.2,10.4,8.5,17.5,8.5s13.4-3.4,17.5-8.5
			c4.1,5.2,10.4,8.5,17.5,8.5c4.6,0,8.9-1.4,12.5-3.8v153.8H259.9z"/>
		<path fill="#37444F" stroke="#37444F" stroke-width="0.4828" stroke-miterlimit="10" d="M159.9,329.9h80v-90h-80V329.9z
			 M169.9,249.9h60v70h-60V249.9z"/>
		<path fill="#37444F" stroke="#37444F" stroke-width="0.6952" stroke-miterlimit="10" d="M84.9,314.9h-5c-2.8,0-5,2.2-5,5
			c0,2.8,2.2,5,5,5h5c2.8,0,5-2.2,5-5C89.9,317.2,87.6,314.9,84.9,314.9z"/>
		<path fill="#37444F" stroke="#37444F" stroke-width="0.6952" stroke-miterlimit="10" d="M124.9,314.9h-5c-2.8,0-5,2.2-5,5
			c0,2.8,2.2,5,5,5h5c2.8,0,5-2.2,5-5C129.9,317.2,127.6,314.9,124.9,314.9z"/>
		<path fill="#37444F" stroke="#37444F" stroke-width="0.6952" stroke-miterlimit="10" d="M104.9,314.9h-5c-2.8,0-5,2.2-5,5
			c0,2.8,2.2,5,5,5h5c2.8,0,5-2.2,5-5C109.9,317.2,107.6,314.9,104.9,314.9z"/>
		<path fill="#37444F" stroke="#37444F" stroke-width="0.6952" stroke-miterlimit="10" d="M284.9,314.9h-5c-2.8,0-5,2.2-5,5
			c0,2.8,2.2,5,5,5h5c2.8,0,5-2.2,5-5C289.9,317.2,287.6,314.9,284.9,314.9z"/>
		<path fill="#37444F" stroke="#37444F" stroke-width="0.6952" stroke-miterlimit="10" d="M324.9,314.9h-5c-2.8,0-5,2.2-5,5
			c0,2.8,2.2,5,5,5h5c2.8,0,5-2.2,5-5C329.9,317.2,327.6,314.9,324.9,314.9z"/>
		<path fill="#37444F" stroke="#37444F" stroke-width="0.6952" stroke-miterlimit="10" d="M304.9,314.9h-5c-2.8,0-5,2.2-5,5
			c0,2.8,2.2,5,5,5h5c2.8,0,5-2.2,5-5C309.9,317.2,307.6,314.9,304.9,314.9z"/>
		<path fill="#37444F" stroke="#37444F" stroke-width="0.6952" stroke-miterlimit="10" d="M101.3,178.5c1,1,2.3,1.5,3.5,1.5
			s2.6-0.5,3.5-1.5l15-15c2-2,2-5.1,0-7.1c-2-2-5.1-2-7.1,0l-15,15C99.4,173.4,99.4,176.5,101.3,178.5z"/>
		<path fill="#37444F" stroke="#37444F" stroke-width="0.6952" stroke-miterlimit="10" d="M116.3,181.4l-45,45c-2,2-2,5.1,0,7.1
			c1,1,2.3,1.5,3.5,1.5s2.6-0.5,3.5-1.5l45-45c2-2,2-5.1,0-7.1C121.4,179.5,118.3,179.5,116.3,181.4z"/>
		<path fill="#37444F" stroke="#37444F" stroke-width="0.6952" stroke-miterlimit="10" d="M269.9,209.9c1.3,0,2.6-0.5,3.5-1.5l10-10
			c2-2,2-5.1,0-7.1c-2-2-5.1-2-7.1,0l-10,10c-2,2-2,5.1,0,7.1C267.3,209.4,268.6,209.9,269.9,209.9z"/>
		<path fill="#37444F" stroke="#37444F" stroke-width="0.6952" stroke-miterlimit="10" d="M311.3,181.4l-45,45c-2,2-2,5.1,0,7.1
			c1,1,2.3,1.5,3.5,1.5s2.6-0.5,3.5-1.5l45-45c2-2,2-5.1,0-7.1C316.4,179.5,313.3,179.5,311.3,181.4z"/>
		<path fill="#37444F" stroke="#37444F" stroke-width="0.6952" stroke-miterlimit="10" d="M328.4,171.4c-1.8-1.8-5.2-1.8-7.1,0
			c-0.9,0.9-1.5,2.2-1.5,3.5c0,1.3,0.5,2.6,1.5,3.5c0.9,0.9,2.2,1.4,3.5,1.4s2.6-0.5,3.5-1.4c0.9-0.9,1.5-2.2,1.5-3.5
			S329.3,172.3,328.4,171.4z"/>
	</g>
</g>
<g display="none">
	<polygon display="inline" fill="#545E75" points="316.4,48.3 84.6,48.3 93.9,34.6 112.6,25.4 288.4,25.4 307.2,34.5 	"/>
	<rect x="75.5" y="76.2" display="inline" fill="#C2C1C9" width="250" height="298.3"/>
	<rect x="251.7" y="119.8" display="inline" fill="#01B4DF" width="46.2" height="46.2"/>
	<rect x="101.8" y="119.8" display="inline" fill="#01B4DF" width="46.2" height="46.2"/>
	<rect x="177.4" y="119.8" display="inline" fill="#01B4DF" width="46.2" height="46.2"/>
	<rect x="253.6" y="202.6" display="inline" fill="#01B4DF" width="46.2" height="46.2"/>
	<rect x="104.2" y="202.6" display="inline" fill="#01B4DF" width="46.2" height="46.2"/>
	<rect x="177.4" y="202.6" display="inline" fill="#01B4DF" width="46.2" height="46.2"/>
	<rect x="158.8" y="286.7" display="inline" fill="#FD3259" width="83.5" height="64.8"/>
	<g display="inline">
		<g>
			
				<path fill="none" stroke="#37444F" stroke-width="11.0298" stroke-linecap="round" stroke-linejoin="round" stroke-miterlimit="10" d="
				M75.5,374.5V71.6c0-25.4,20.8-46.2,46.2-46.2h157.6c25.4,0,46.2,20.8,46.2,46.2v302.9H75.5z"/>
			<g>
				
					<line fill="none" stroke="#37444F" stroke-width="11.0298" stroke-linecap="round" stroke-linejoin="round" stroke-miterlimit="10" x1="94.1" y1="76.2" x2="94.1" y2="85.6"/>
				
					<line fill="none" stroke="#37444F" stroke-width="11.0298" stroke-linecap="round" stroke-linejoin="round" stroke-miterlimit="10" x1="112.8" y1="76.2" x2="112.8" y2="85.6"/>
				
					<line fill="none" stroke="#37444F" stroke-width="11.0298" stroke-linecap="round" stroke-linejoin="round" stroke-miterlimit="10" x1="131.4" y1="76.2" x2="131.4" y2="85.6"/>
				
					<line fill="none" stroke="#37444F" stroke-width="11.0298" stroke-linecap="round" stroke-linejoin="round" stroke-miterlimit="10" x1="149.6" y1="76.2" x2="149.6" y2="85.6"/>
				
					<line fill="none" stroke="#37444F" stroke-width="11.0298" stroke-linecap="round" stroke-linejoin="round" stroke-miterlimit="10" x1="168.3" y1="76.2" x2="168.3" y2="85.6"/>
				
					<line fill="none" stroke="#37444F" stroke-width="11.0298" stroke-linecap="round" stroke-linejoin="round" stroke-miterlimit="10" x1="186.9" y1="76.2" x2="186.9" y2="85.6"/>
				
					<line fill="none" stroke="#37444F" stroke-width="11.0298" stroke-linecap="round" stroke-linejoin="round" stroke-miterlimit="10" x1="214.5" y1="76.2" x2="214.5" y2="85.6"/>
				
					<line fill="none" stroke="#37444F" stroke-width="11.0298" stroke-linecap="round" stroke-linejoin="round" stroke-miterlimit="10" x1="233.1" y1="76.2" x2="233.1" y2="85.6"/>
				
					<line fill="none" stroke="#37444F" stroke-width="11.0298" stroke-linecap="round" stroke-linejoin="round" stroke-miterlimit="10" x1="251.7" y1="76.2" x2="251.7" y2="85.6"/>
				
					<line fill="none" stroke="#37444F" stroke-width="11.0298" stroke-linecap="round" stroke-linejoin="round" stroke-miterlimit="10" x1="270.3" y1="76.2" x2="270.3" y2="85.6"/>
				
					<line fill="none" stroke="#37444F" stroke-width="11.0298" stroke-linecap="round" stroke-linejoin="round" stroke-miterlimit="10" x1="288.6" y1="76.2" x2="288.6" y2="85.6"/>
				
					<line fill="none" stroke="#37444F" stroke-width="11.0298" stroke-linecap="round" stroke-linejoin="round" stroke-miterlimit="10" x1="307.2" y1="76.2" x2="307.2" y2="85.6"/>
				
					<line fill="none" stroke="#37444F" stroke-width="11.0298" stroke-linecap="round" stroke-linejoin="round" stroke-miterlimit="10" x1="323.9" y1="76.2" x2="75.5" y2="76.2"/>
			</g>
		</g>
		
			<line fill="none" stroke="#37444F" stroke-width="11.0298" stroke-linecap="round" stroke-linejoin="round" stroke-miterlimit="10" x1="316.6" y1="48.3" x2="84.8" y2="48.3"/>
		<g>
			
				<rect x="159" y="286.7" fill="none" stroke="#37444F" stroke-width="11.0298" stroke-linecap="round" stroke-linejoin="round" stroke-miterlimit="10" width="83.5" height="64.8"/>
			
				<line fill="none" stroke="#37444F" stroke-width="11.0298" stroke-linecap="round" stroke-linejoin="round" stroke-miterlimit="10" x1="200.9" y1="286.7" x2="200.9" y2="351.6"/>
			
				<line fill="none" stroke="#37444F" stroke-width="11.0298" stroke-linecap="round" stroke-linejoin="round" stroke-miterlimit="10" x1="191.6" y1="323.6" x2="209.8" y2="323.6"/>
		</g>
		<g>
			
				<rect x="103.4" y="119.8" fill="none" stroke="#37444F" stroke-width="11.0298" stroke-linecap="round" stroke-linejoin="round" stroke-miterlimit="10" width="46.2" height="46.2"/>
			
				<line fill="none" stroke="#37444F" stroke-width="11.0298" stroke-linecap="round" stroke-linejoin="round" stroke-miterlimit="10" x1="126.7" y1="119.8" x2="126.7" y2="166"/>
		</g>
		<g>
			
				<rect x="177.6" y="119.8" fill="none" stroke="#37444F" stroke-width="11.0298" stroke-linecap="round" stroke-linejoin="round" stroke-miterlimit="10" width="46.2" height="46.2"/>
			
				<line fill="none" stroke="#37444F" stroke-width="11.0298" stroke-linecap="round" stroke-linejoin="round" stroke-miterlimit="10" x1="200.9" y1="119.8" x2="200.9" y2="166"/>
		</g>
		<g>
			
				<rect x="251.7" y="119.8" fill="none" stroke="#37444F" stroke-width="11.0298" stroke-linecap="round" stroke-linejoin="round" stroke-miterlimit="10" width="46.2" height="46.2"/>
			
				<line fill="none" stroke="#37444F" stroke-width="11.0298" stroke-linecap="round" stroke-linejoin="round" stroke-miterlimit="10" x1="274.6" y1="119.8" x2="274.6" y2="166"/>
		</g>
		<g>
			
				<rect x="103.4" y="203.3" fill="none" stroke="#37444F" stroke-width="11.0298" stroke-linecap="round" stroke-linejoin="round" stroke-miterlimit="10" width="46.2" height="46.2"/>
			
				<line fill="none" stroke="#37444F" stroke-width="11.0298" stroke-linecap="round" stroke-linejoin="round" stroke-miterlimit="10" x1="126.7" y1="203.3" x2="126.7" y2="249.5"/>
		</g>
		<g>
			
				<rect x="177.6" y="203.3" fill="none" stroke="#37444F" stroke-width="11.0298" stroke-linecap="round" stroke-linejoin="round" stroke-miterlimit="10" width="46.2" height="46.2"/>
			
				<line fill="none" stroke="#37444F" stroke-width="11.0298" stroke-linecap="round" stroke-linejoin="round" stroke-miterlimit="10" x1="200.9" y1="203.3" x2="200.9" y2="249.5"/>
		</g>
		<g>
			
				<rect x="251.7" y="203.3" fill="none" stroke="#37444F" stroke-width="11.0298" stroke-linecap="round" stroke-linejoin="round" stroke-miterlimit="10" width="46.2" height="46.2"/>
			
				<line fill="none" stroke="#37444F" stroke-width="11.0298" stroke-linecap="round" stroke-linejoin="round" stroke-miterlimit="10" x1="274.6" y1="203.3" x2="274.6" y2="249.5"/>
		</g>
	</g>
</g>
<g transform="translate(1 1)" display="none">
	<g display="inline">
		<g>
			<path fill="#FFFFFF" d="M327,60.3H72c-12.5,0-22.5,9.9-22.5,22.4v151.5v22.4c0,12.4,10,22.4,22.5,22.4h96l-7.5,29.8h-1
				c-14,0-25,10.9-25,24.8c0,3,2,5,5,5h120c3,0,5-2,5-5c0-13.9-11-24.8-25-24.8h-1l-7.5-29.8h96c12.5,0,22.5-9.9,22.5-22.4v-22.4
				V82.6C349.5,70.2,339.5,60.3,327,60.3z M59.5,82.6c0-7,5.5-12.4,12.5-12.4h255c7,0,12.5,5.5,12.5,12.4v146.6h-280V82.6z
				 M254,328.6H145.5c2-6,7.5-9.9,14-9.9h5h70h5.5C246.5,318.6,252,322.6,254,328.6z M228,308.7h-57l7.5-29.8h42L228,308.7z
				 M339.5,256.5c0,7-5.5,12.4-12.5,12.4H224.5h-50H72c-7,0-12.5-5.5-12.5-12.4v-17.4h280L339.5,256.5L339.5,256.5z"/>
			<path fill="#FFFFFF" d="M144.5,209.3v-49.8v9.8h20v-24.6v64.6L144.5,209.3L144.5,209.3z M174.5,209.3v-69.7h20v69.7H174.5z
				 M204.5,209.3v-64.6V113h20v96.3L204.5,209.3L204.5,209.3z M239.5,209.3c0-3-2-5-5-5v-9.9c3,0,5-2,5-5s-2-5-5-5v-9.9c3,0,5-2,5-5
				s-2-5-5-5v-9.9c3,0,5-2,5-5c0-3-2-5-5-5v-9.9c3,0,5-2,5-5s-2-5-5-5v-9.9c3,0,5-2,5-5s-2-5-5-5v-9.9c3,0,5-2,5-5h10c0,3,2,5,5,5v5
				v5c-3,0-5,2-5,5c0,3,2,5,5,5v9.9c-3,0-5,2-5,5c0,3,2,5,5,5v9.9c-3,0-5,2-5,5c0,3,2,5,5,5v9.9c-3,0-5,2-5,5s2,5,5,5v9.9
				c-3,0-5,2-5,5s2,5,5,5v9.9c-3,0-5,2-5,5L239.5,209.3L239.5,209.3z M122.3,209.3H89.5c-3,0-5,2-5,5c0,3,2,5,5,5h15h30h10h20h10h20
				h10h20h10h20h10h30h15c3,0,5-2,5-5c0-3-2-5-5-5l-42.8,0h-2.2v0V110l0-9.9V80.1h-40V103h-30v26.7h-30v29.7h-30v6v9.9v33.9h-2.2v0
				L122.3,209.3z"/>
			<path fill="#FFFFFF" d="M244.5,105c3,0,5-2,5-5s-2-5-5-5c-3,0-5,2-5,5C239.5,103,241.5,105,244.5,105z"/>
			<path fill="#FFFFFF" d="M244.5,124.9c3,0,5-2,5-5c0-3-2-5-5-5c-3,0-5,2-5,5C239.5,122.9,241.5,124.9,244.5,124.9z"/>
			<path fill="#FFFFFF" d="M244.5,144.7c3,0,5-2,5-5s-2-5-5-5c-3,0-5,2-5,5S241.5,144.7,244.5,144.7z"/>
			<path fill="#FFFFFF" d="M244.5,164.6c3,0,5-2,5-5c0-3-2-5-5-5c-3,0-5,2-5,5C239.5,162.6,241.5,164.6,244.5,164.6z"/>
			<path fill="#FFFFFF" d="M244.5,184.5c3,0,5-2,5-5c0-3-2-5-5-5c-3,0-5,2-5,5C239.5,182.5,241.5,184.5,244.5,184.5z"/>
			<path fill="#FFFFFF" d="M244.5,194.4c-3,0-5,2-5,5c0,3,2,5,5,5c3,0,5-2,5-5C249.5,196.4,247.5,194.4,244.5,194.4z"/>
		</g>
	</g>
</g>
</svg>
